<svg width="245" height="245" viewBox="0 0 245 245" fill="none" xmlns="http://www.w3.org/2000/svg">
<path d="M27.6016 162.844H15.5898V155.812H27.6016C31.0521 155.812 33.9492 154.51 36.293 151.906C38.6367 149.302 39.8086 145.852 39.8086 141.555V36.2812H46.8398V141.555C46.8398 147.74 44.9844 152.85 41.2734 156.887C37.5625 160.858 33.0052 162.844 27.6016 162.844ZM27.6016 176.906H15.5898V169.875H27.6016C34.8932 169.875 41.0781 167.108 46.1562 161.574C51.2995 156.04 53.8711 149.367 53.8711 141.555V36.2812H60.9023V141.555C60.9023 151.32 57.6471 159.654 51.1367 166.555C44.6914 173.456 36.8464 176.906 27.6016 176.906ZM27.6016 190.969H15.5898V183.938H27.6016C38.7995 183.938 48.3047 179.803 56.1172 171.535C63.9948 163.267 67.9336 153.273 67.9336 141.555V36.2812H74.9648V141.555C74.9648 150.474 72.849 158.742 68.6172 166.359C64.4505 173.911 58.7214 179.901 51.4297 184.328C44.138 188.755 36.1953 190.969 27.6016 190.969ZM27.6016 205.031H15.5898V198H27.6016C35.0234 198 42.0872 196.503 48.793 193.508C55.4987 190.513 61.2604 186.509 66.0781 181.496C70.9609 176.418 74.8346 170.396 77.6992 163.43C80.5638 156.464 81.9961 149.172 81.9961 141.555V36.2812H89.0273V141.555C89.0273 150.148 87.3997 158.352 84.1445 166.164C80.9544 173.977 76.5924 180.747 71.0586 186.477C65.5898 192.141 59.0469 196.633 51.4297 199.953C43.8776 203.339 35.9349 205.031 27.6016 205.031Z" fill="black"/>
<path d="M172.328 99.5625H160.512C155.499 99.5625 151.885 98.293 149.672 95.7539C147.458 93.1497 146.352 89.7318 146.352 85.5C146.352 76.125 153.35 71.4375 167.348 71.4375C180.499 71.4375 190.395 73.3906 197.035 77.2969L191.371 81.5938C186.814 79.5104 178.806 78.4688 167.348 78.4688C161.749 78.4688 157.973 79.0872 156.02 80.3242C154.132 81.5612 153.188 83.2865 153.188 85.5C153.188 87.7135 153.708 89.4388 154.75 90.6758C155.792 91.9128 157.712 92.5312 160.512 92.5312H172.621C181.41 92.5312 189.32 94.0286 196.352 97.0234C203.448 100.018 209.275 104.12 213.832 109.328C218.389 114.471 221.872 120.428 224.281 127.199C226.69 133.905 227.895 141.099 227.895 148.781C227.895 155.031 227.016 160.956 225.258 166.555C223.5 172.154 220.831 177.297 217.25 181.984C213.734 186.672 209.47 190.741 204.457 194.191C199.509 197.577 193.585 200.214 186.684 202.102C179.848 204.055 172.426 205.031 164.418 205.031C151.853 205.031 140.069 203.111 129.066 199.27C118.129 195.493 109.014 190.188 101.723 183.352L107.387 179.152C114.027 185.142 122.328 189.797 132.289 193.117C142.315 196.372 153.025 198 164.418 198C173.337 198 181.378 196.73 188.539 194.191C195.766 191.587 201.69 188.039 206.312 183.547C211 179.055 214.581 173.846 217.055 167.922C219.594 161.997 220.863 155.617 220.863 148.781C220.863 139.732 219.04 131.561 215.395 124.27C211.749 116.913 206.182 110.956 198.695 106.398C191.273 101.841 182.484 99.5625 172.328 99.5625ZM160.512 106.594H171.645C184.861 106.594 195.18 110.63 202.602 118.703C210.089 126.776 213.832 136.802 213.832 148.781C213.832 160.956 209.503 171.047 200.844 179.055C192.185 186.997 180.043 190.969 164.418 190.969C154.001 190.969 144.268 189.536 135.219 186.672C126.169 183.807 118.65 179.771 112.66 174.562L118.129 170.168C123.467 174.53 130.173 177.915 138.246 180.324C146.384 182.733 155.108 183.938 164.418 183.938C178.155 183.938 188.637 180.65 195.863 174.074C203.155 167.499 206.801 159.068 206.801 148.781C206.801 138.625 203.741 130.227 197.621 123.586C191.566 116.945 182.875 113.625 171.547 113.625H160.512C151.007 113.625 143.878 111.021 139.125 105.812C134.372 100.604 131.996 93.8333 131.996 85.5C131.996 77.1667 134.926 70.3958 140.785 65.1875C146.71 59.9792 155.564 57.375 167.348 57.375C175.616 57.375 183.298 58.3516 190.395 60.3047C197.491 62.1927 203.35 64.9271 207.973 68.5078L202.406 72.8047C194.268 67.2057 182.582 64.4062 167.348 64.4062C157.517 64.4062 150.323 66.3594 145.766 70.2656C141.273 74.1068 139.027 79.1849 139.027 85.5C139.027 91.8802 140.688 96.9909 144.008 100.832C147.393 104.673 152.895 106.594 160.512 106.594ZM160.512 120.656H171.254C180.759 120.656 187.888 123.293 192.641 128.566C197.393 133.84 199.77 140.578 199.77 148.781C199.77 157.115 196.807 163.885 190.883 169.094C185.023 174.302 176.202 176.906 164.418 176.906C156.15 176.906 148.435 175.962 141.273 174.074C134.177 172.121 128.318 169.354 123.695 165.773L129.262 161.477C137.4 167.076 149.118 169.875 164.418 169.875C174.249 169.875 181.41 167.954 185.902 164.113C190.46 160.207 192.738 155.096 192.738 148.781C192.738 142.466 191.046 137.388 187.66 133.547C184.275 129.641 178.773 127.688 171.156 127.688H160.512C147.165 127.688 136.716 123.716 129.164 115.773C121.677 107.766 117.934 97.6745 117.934 85.5C117.934 73.3255 122.263 63.2669 130.922 55.3242C139.581 47.3164 151.723 43.3125 167.348 43.3125C177.764 43.3125 187.465 44.7448 196.449 47.6094C205.499 50.474 213.018 54.5104 219.008 59.7188L213.539 64.1133C208.201 59.7513 201.495 56.3659 193.422 53.957C185.349 51.5482 176.658 50.3438 167.348 50.3438C153.611 50.3438 143.096 53.6315 135.805 60.207C128.578 66.7826 124.965 75.2135 124.965 85.5C124.965 95.7214 128.025 104.152 134.145 110.793C140.264 117.368 149.053 120.656 160.512 120.656ZM160.512 134.719H171.254C176.267 134.719 179.88 136.021 182.094 138.625C184.307 141.229 185.414 144.615 185.414 148.781C185.414 158.156 178.415 162.844 164.418 162.844C151.202 162.844 141.273 160.891 134.633 156.984L140.297 152.688C144.854 154.771 152.895 155.812 164.418 155.812C170.017 155.812 173.76 155.194 175.648 153.957C177.602 152.72 178.578 150.995 178.578 148.781C178.578 146.633 178.025 144.94 176.918 143.703C175.876 142.401 173.923 141.75 171.059 141.75H160.512C151.527 141.75 143.389 140.285 136.098 137.355C128.871 134.426 122.914 130.389 118.227 125.246C113.604 120.103 110.056 114.146 107.582 107.375C105.108 100.604 103.871 93.3125 103.871 85.5C103.871 79.25 104.75 73.3255 106.508 67.7266C108.266 62.1276 110.902 56.9844 114.418 52.2969C117.999 47.6094 122.263 43.5729 127.211 40.1875C132.224 36.737 138.148 34.0677 144.984 32.1797C151.885 30.2266 159.34 29.25 167.348 29.25C179.913 29.25 191.664 31.1706 202.602 35.0117C213.539 38.7878 222.654 44.0938 229.945 50.9297L224.281 55.1289C217.641 49.1393 209.34 44.5169 199.379 41.2617C189.418 37.9414 178.741 36.2812 167.348 36.2812C158.428 36.2812 150.355 37.5833 143.129 40.1875C135.967 42.7266 130.043 46.2422 125.355 50.7344C120.733 55.2266 117.152 60.4349 114.613 66.3594C112.139 72.2839 110.902 78.6641 110.902 85.5C110.902 94.6797 112.758 102.948 116.469 110.305C120.18 117.661 125.844 123.586 133.461 128.078C141.078 132.505 150.095 134.719 160.512 134.719Z" fill="black"/>
</svg>
