<svg width="493" height="59" viewBox="0 0 493 59" fill="none" xmlns="http://www.w3.org/2000/svg">
<path d="M2 52C1.44772 52 1 52.4477 1 53C1 53.5523 1.44772 54 2 54V52ZM493 53L483 47.2265V58.7735L493 53ZM2 54H484V52H2V54Z" fill="black"/>
<line x1="1.74731" y1="53" x2="1.74731" y2="9" stroke="black" stroke-width="2" stroke-linecap="round"/>
<path d="M32.85 38C32.05 38 31.45 37.5667 31.05 36.7L19.95 13.15C19.75 12.7167 19.7333 12.2833 19.9 11.85C20.0667 11.4167 20.4 11.0833 20.9 10.85C21.3667 10.6167 21.8167 10.5833 22.25 10.75C22.6833 10.9167 23.0167 11.2167 23.25 11.65L33.9 34.7H31.85L42.35 11.65C42.55 11.1833 42.8833 10.8833 43.35 10.75C43.85 10.5833 44.3333 10.6 44.8 10.8C45.2667 11.0333 45.5833 11.3833 45.75 11.85C45.9167 12.2833 45.9 12.7 45.7 13.1L34.75 36.7C34.35 37.5667 33.7167 38 32.85 38Z" fill="black"/>
<path d="M53.8867 38C53.2867 38 52.8034 37.8333 52.4367 37.5C52.1034 37.1333 51.9367 36.65 51.9367 36.05V12.6C51.9367 12 52.1034 11.5333 52.4367 11.2C52.8034 10.8333 53.2867 10.65 53.8867 10.65C54.4534 10.65 54.9034 10.8333 55.2367 11.2C55.6034 11.5333 55.7867 12 55.7867 12.6V36.05C55.7867 36.65 55.6034 37.1333 55.2367 37.5C54.9034 37.8333 54.4534 38 53.8867 38ZM53.8367 5.45C53.1034 5.45 52.4701 5.18333 51.9367 4.65C51.4034 4.11667 51.1367 3.46667 51.1367 2.7C51.1367 1.86667 51.4034 1.21667 51.9367 0.749999C52.5034 0.25 53.1534 0 53.8867 0C54.5867 0 55.2034 0.25 55.7367 0.749999C56.3034 1.21667 56.5867 1.86667 56.5867 2.7C56.5867 3.46667 56.3201 4.11667 55.7867 4.65C55.2534 5.18333 54.6034 5.45 53.8367 5.45Z" fill="black"/>
<path d="M75.1399 38.25C73.1732 38.25 71.2232 37.9167 69.2899 37.25C67.3565 36.5833 65.7899 35.5833 64.5899 34.25C64.2232 33.85 64.0732 33.4 64.1399 32.9C64.2065 32.4 64.4565 31.9667 64.8899 31.6C65.3565 31.2667 65.8399 31.1333 66.3399 31.2C66.8399 31.2667 67.2565 31.4833 67.5899 31.85C68.3899 32.7833 69.4399 33.5 70.7399 34C72.0732 34.5 73.5399 34.75 75.1399 34.75C77.6065 34.75 79.3899 34.3333 80.4899 33.5C81.5899 32.6333 82.1565 31.6 82.1899 30.4C82.1899 29.2 81.6232 28.2167 80.4899 27.45C79.3565 26.65 77.4899 26.0333 74.8899 25.6C71.5232 25.0667 69.0565 24.1333 67.4899 22.8C65.9232 21.4667 65.1399 19.8833 65.1399 18.05C65.1399 16.35 65.5899 14.9333 66.4899 13.8C67.3899 12.6667 68.5899 11.8167 70.0899 11.25C71.5899 10.6833 73.2399 10.4 75.0399 10.4C77.2732 10.4 79.1899 10.7833 80.7899 11.55C82.4232 12.3167 83.7399 13.35 84.7399 14.65C85.0732 15.0833 85.2065 15.5333 85.1399 16C85.0732 16.4667 84.8065 16.85 84.3399 17.15C83.9399 17.3833 83.4732 17.4667 82.9399 17.4C82.4399 17.3 82.0065 17.05 81.6399 16.65C80.8065 15.6833 79.8399 14.9833 78.7399 14.55C77.6399 14.0833 76.3732 13.85 74.9399 13.85C73.1065 13.85 71.6399 14.2333 70.5399 15C69.4399 15.7333 68.8899 16.6667 68.8899 17.8C68.8899 18.5667 69.0899 19.2333 69.4899 19.8C69.9232 20.3667 70.6399 20.8667 71.6399 21.3C72.6732 21.7333 74.1065 22.1 75.9399 22.4C78.4399 22.8 80.4065 23.4 81.8399 24.2C83.3065 24.9667 84.3399 25.8833 84.9399 26.95C85.5732 27.9833 85.8899 29.1167 85.8899 30.35C85.8899 31.9167 85.4232 33.3 84.4899 34.5C83.5899 35.6667 82.3232 36.5833 80.6899 37.25C79.0899 37.9167 77.2399 38.25 75.1399 38.25Z" fill="black"/>
<path d="M95.293 38C94.693 38 94.2096 37.8333 93.843 37.5C93.5096 37.1333 93.343 36.65 93.343 36.05V12.6C93.343 12 93.5096 11.5333 93.843 11.2C94.2096 10.8333 94.693 10.65 95.293 10.65C95.8597 10.65 96.3096 10.8333 96.643 11.2C97.0096 11.5333 97.193 12 97.193 12.6V36.05C97.193 36.65 97.0096 37.1333 96.643 37.5C96.3096 37.8333 95.8597 38 95.293 38ZM95.243 5.45C94.5096 5.45 93.8763 5.18333 93.343 4.65C92.8096 4.11667 92.543 3.46667 92.543 2.7C92.543 1.86667 92.8096 1.21667 93.343 0.749999C93.9096 0.25 94.5597 0 95.293 0C95.993 0 96.6096 0.25 97.143 0.749999C97.7096 1.21667 97.993 1.86667 97.993 2.7C97.993 3.46667 97.7263 4.11667 97.193 4.65C96.6597 5.18333 96.0096 5.45 95.243 5.45Z" fill="black"/>
<path d="M117.696 38C115.929 38 114.346 37.5833 112.946 36.75C111.579 35.9167 110.496 34.7833 109.696 33.35C108.896 31.8833 108.496 30.2167 108.496 28.35V3.9C108.496 3.33333 108.663 2.86667 108.996 2.5C109.363 2.13333 109.829 1.95 110.396 1.95C110.963 1.95 111.429 2.13333 111.796 2.5C112.163 2.86667 112.346 3.33333 112.346 3.9V28.35C112.346 30.05 112.846 31.45 113.846 32.55C114.846 33.6167 116.129 34.15 117.696 34.15H119.046C119.579 34.15 120.013 34.3333 120.346 34.7C120.679 35.0667 120.846 35.5333 120.846 36.1C120.846 36.6667 120.646 37.1333 120.246 37.5C119.846 37.8333 119.346 38 118.746 38H117.696ZM105.246 15C104.746 15 104.329 14.85 103.996 14.55C103.663 14.2167 103.496 13.8167 103.496 13.35C103.496 12.85 103.663 12.45 103.996 12.15C104.329 11.8167 104.746 11.65 105.246 11.65H117.996C118.496 11.65 118.913 11.8167 119.246 12.15C119.579 12.45 119.746 12.85 119.746 13.35C119.746 13.8167 119.579 14.2167 119.246 14.55C118.913 14.85 118.496 15 117.996 15H105.246Z" fill="black"/>
<path d="M151.312 38.25C149.345 38.25 147.395 37.9167 145.462 37.25C143.528 36.5833 141.962 35.5833 140.762 34.25C140.395 33.85 140.245 33.4 140.312 32.9C140.378 32.4 140.628 31.9667 141.062 31.6C141.528 31.2667 142.012 31.1333 142.512 31.2C143.012 31.2667 143.428 31.4833 143.762 31.85C144.562 32.7833 145.612 33.5 146.912 34C148.245 34.5 149.712 34.75 151.312 34.75C153.778 34.75 155.562 34.3333 156.662 33.5C157.762 32.6333 158.328 31.6 158.362 30.4C158.362 29.2 157.795 28.2167 156.662 27.45C155.528 26.65 153.662 26.0333 151.062 25.6C147.695 25.0667 145.228 24.1333 143.662 22.8C142.095 21.4667 141.312 19.8833 141.312 18.05C141.312 16.35 141.762 14.9333 142.662 13.8C143.562 12.6667 144.762 11.8167 146.262 11.25C147.762 10.6833 149.412 10.4 151.212 10.4C153.445 10.4 155.362 10.7833 156.962 11.55C158.595 12.3167 159.912 13.35 160.912 14.65C161.245 15.0833 161.378 15.5333 161.312 16C161.245 16.4667 160.978 16.85 160.512 17.15C160.112 17.3833 159.645 17.4667 159.112 17.4C158.612 17.3 158.178 17.05 157.812 16.65C156.978 15.6833 156.012 14.9833 154.912 14.55C153.812 14.0833 152.545 13.85 151.112 13.85C149.278 13.85 147.812 14.2333 146.712 15C145.612 15.7333 145.062 16.6667 145.062 17.8C145.062 18.5667 145.262 19.2333 145.662 19.8C146.095 20.3667 146.812 20.8667 147.812 21.3C148.845 21.7333 150.278 22.1 152.112 22.4C154.612 22.8 156.578 23.4 158.012 24.2C159.478 24.9667 160.512 25.8833 161.112 26.95C161.745 27.9833 162.062 29.1167 162.062 30.35C162.062 31.9167 161.595 33.3 160.662 34.5C159.762 35.6667 158.495 36.5833 156.862 37.25C155.262 37.9167 153.412 38.25 151.312 38.25Z" fill="black"/>
<path d="M171.465 38C170.865 38 170.382 37.8333 170.015 37.5C169.682 37.1333 169.515 36.65 169.515 36.05V12.6C169.515 12 169.682 11.5333 170.015 11.2C170.382 10.8333 170.865 10.65 171.465 10.65C172.032 10.65 172.482 10.8333 172.815 11.2C173.182 11.5333 173.365 12 173.365 12.6V36.05C173.365 36.65 173.182 37.1333 172.815 37.5C172.482 37.8333 172.032 38 171.465 38ZM171.415 5.45C170.682 5.45 170.048 5.18333 169.515 4.65C168.982 4.11667 168.715 3.46667 168.715 2.7C168.715 1.86667 168.982 1.21667 169.515 0.749999C170.082 0.25 170.732 0 171.465 0C172.165 0 172.782 0.25 173.315 0.749999C173.882 1.21667 174.165 1.86667 174.165 2.7C174.165 3.46667 173.898 4.11667 173.365 4.65C172.832 5.18333 172.182 5.45 171.415 5.45Z" fill="black"/>
<path d="M193.868 38C192.101 38 190.518 37.5833 189.118 36.75C187.751 35.9167 186.668 34.7833 185.868 33.35C185.068 31.8833 184.668 30.2167 184.668 28.35V3.9C184.668 3.33333 184.835 2.86667 185.168 2.5C185.535 2.13333 186.001 1.95 186.568 1.95C187.135 1.95 187.601 2.13333 187.968 2.5C188.335 2.86667 188.518 3.33333 188.518 3.9V28.35C188.518 30.05 189.018 31.45 190.018 32.55C191.018 33.6167 192.301 34.15 193.868 34.15H195.218C195.751 34.15 196.185 34.3333 196.518 34.7C196.851 35.0667 197.018 35.5333 197.018 36.1C197.018 36.6667 196.818 37.1333 196.418 37.5C196.018 37.8333 195.518 38 194.918 38H193.868ZM181.418 15C180.918 15 180.501 14.85 180.168 14.55C179.835 14.2167 179.668 13.8167 179.668 13.35C179.668 12.85 179.835 12.45 180.168 12.15C180.501 11.8167 180.918 11.65 181.418 11.65H194.168C194.668 11.65 195.085 11.8167 195.418 12.15C195.751 12.45 195.918 12.85 195.918 13.35C195.918 13.8167 195.751 14.2167 195.418 14.55C195.085 14.85 194.668 15 194.168 15H181.418Z" fill="black"/>
<path d="M215.685 38.25C212.985 38.25 210.585 37.6667 208.485 36.5C206.419 35.3 204.785 33.65 203.585 31.55C202.419 29.45 201.835 27.05 201.835 24.35C201.835 21.6167 202.385 19.2167 203.485 17.15C204.619 15.05 206.168 13.4 208.135 12.2C210.102 11 212.368 10.4 214.935 10.4C217.468 10.4 219.669 10.9833 221.535 12.15C223.435 13.2833 224.902 14.8667 225.935 16.9C226.968 18.9333 227.485 21.25 227.485 23.85C227.485 24.3833 227.319 24.8167 226.985 25.15C226.652 25.45 226.218 25.6 225.685 25.6H204.435V22.4H226.085L223.935 23.95C223.968 22.0167 223.619 20.2833 222.885 18.75C222.152 17.2167 221.102 16.0167 219.735 15.15C218.402 14.2833 216.802 13.85 214.935 13.85C213.035 13.85 211.368 14.3 209.935 15.2C208.502 16.1 207.385 17.35 206.585 18.95C205.819 20.5167 205.435 22.3167 205.435 24.35C205.435 26.3833 205.869 28.1833 206.735 29.75C207.635 31.3167 208.852 32.55 210.385 33.45C211.918 34.35 213.685 34.8 215.685 34.8C216.885 34.8 218.085 34.6 219.285 34.2C220.519 33.7667 221.502 33.2333 222.235 32.6C222.602 32.3 223.019 32.15 223.485 32.15C223.952 32.1167 224.352 32.2333 224.685 32.5C225.118 32.9 225.335 33.3333 225.335 33.8C225.369 34.2667 225.185 34.6667 224.785 35C223.685 35.9333 222.285 36.7167 220.585 37.35C218.885 37.95 217.252 38.25 215.685 38.25Z" fill="black"/>
</svg>
